<?xml version="1.0" encoding="utf-8"?>
<!-- Generator: Adobe Illustrator 18.0.0, SVG Export Plug-In . SVG Version: 6.00 Build 0)  -->
<!DOCTYPE svg PUBLIC "-//W3C//DTD SVG 1.1//EN" "http://www.w3.org/Graphics/SVG/1.1/DTD/svg11.dtd">
<svg version="1.1" id="Bold" xmlns="http://www.w3.org/2000/svg" xmlns:xlink="http://www.w3.org/1999/xlink" x="0px" y="0px"
	 viewBox="0 0 3000 3000" enable-background="new 0 0 3000 3000" xml:space="preserve">
<path fill="#525252" d="M2691.8,888.9c121.9-86.7,224.4-194.5,308.2-319.3l0,0c-111.9,48.6-230.3,81.4-354.5,97.3
	c127.7-76.2,225-195.7,270.7-339.8C2797.3,397.9,2666,447.7,2526,475.8c-112.5-120.1-273.6-194.5-448.8-194.5
	c-340.4,0-614.6,276.6-614.6,615.2c0,48.6,4.1,95.5,14.1,140c-511.5-25.2-963.9-270.1-1268-643.4c-52.7,92-84.4,197.5-84.4,311.1
	c0,213.3,109.6,402,273,510.9c-99-1.8-195.7-30.5-277.7-75.6v7c0,298.8,213.3,547.3,492.8,604.1c-50.4,13.5-104.9,20.5-161.1,20.5
	c-39.3,0-79.1-2.3-116.6-10.5c79.7,243.8,305.9,422.5,574.8,428.3c-209.2,163.5-475.2,262.5-762.9,262.5c-50.4,0-99-2.3-147.1-8.2
	c272.5,175.8,595.3,276,943.4,276C2029.1,2718.8,2736.3,1813.5,2691.8,888.9L2691.8,888.9z"/>
</svg>
