<?xml version="1.0" encoding="utf-8"?>
<!-- Generator: Adobe Illustrator 18.0.0, SVG Export Plug-In . SVG Version: 6.00 Build 0)  -->
<!DOCTYPE svg PUBLIC "-//W3C//DTD SVG 1.1//EN" "http://www.w3.org/Graphics/SVG/1.1/DTD/svg11.dtd">
<svg version="1.1" id="Capa_1" xmlns="http://www.w3.org/2000/svg" xmlns:xlink="http://www.w3.org/1999/xlink" x="0px" y="0px"
	 viewBox="0 0 3000 3000" enable-background="new 0 0 3000 3000" xml:space="preserve">
<g>
	<g>
		<g>
			<g>
				<path fill="#525252" d="M1500.4,0h-0.8C672.6,0,0,672.8,0,1500c0,328.1,105.8,632.3,285.6,879.2l-187,557.2l576.6-184.3
					c237.2,157.1,520.1,247.9,825.2,247.9c827.1,0,1499.6-672.9,1499.6-1500S2327.4,0,1500.4,0z M2373.2,2118.2
					c-36.2,102.2-179.8,186.9-294.4,211.7c-78.4,16.7-180.8,30-525.4-112.9c-440.8-182.6-724.7-630.6-746.8-659.6
					c-21.2-29.1-178.1-237.2-178.1-452.4s109.3-320.1,153.4-365.1c36.2-36.9,96-53.8,153.4-53.8c18.6,0,35.3,0.9,50.3,1.7
					c44.1,1.9,66.2,4.5,95.3,74.1c36.2,87.2,124.3,302.4,134.8,324.6c10.7,22.1,21.4,52.1,6.4,81.2c-14.1,30-26.4,43.3-48.6,68.8
					s-43.1,45-65.3,72.4c-20.3,23.8-43.1,49.3-17.6,93.4c25.5,43.1,113.6,186.9,243.4,302.4c167.4,149.1,303.2,196.7,351.8,216.9
					c36.2,15,79.3,11.4,105.8-16.7c33.6-36.2,75-96.2,117.2-155.3c30-42.4,67.9-47.6,107.6-32.6c40.5,14.1,254.8,120,298.9,141.9
					c44.1,22.1,73.1,32.6,83.8,51.2C2409.4,1928.6,2409.4,2015.8,2373.2,2118.2z"/>
			</g>
		</g>
	</g>
</g>
</svg>
